<?xml version="1.0" standalone="no"?>
<!DOCTYPE svg PUBLIC "-//W3C//DTD SVG 20010904//EN"
 "http://www.w3.org/TR/2001/REC-SVG-20010904/DTD/svg10.dtd">
<svg version="1.0" xmlns="http://www.w3.org/2000/svg"
 width="800.000000pt" height="800.000000pt" viewBox="0 0 800.000000 800.000000"
 preserveAspectRatio="xMidYMid meet">
<metadata>
Created by potrace 1.14, written by Peter Selinger 2001-2017
</metadata>
<g transform="translate(0.000000,800.000000) scale(0.100000,-0.100000)"
fill="#000000" stroke="none">
<path d="M3789 7943 c0 -10 -2 -184 -2 -388 l-2 -370 -57 0 c-32 1 -58 -2 -58
-5 0 -3 -12 -6 -27 -7 -91 -5 -175 -12 -223 -18 -30 -3 -66 -8 -80 -9 -14 -2
-32 -6 -40 -8 -8 -3 -46 -10 -85 -17 -38 -6 -79 -13 -90 -16 -11 -2 -38 -9
-59 -14 -22 -5 -44 -8 -48 -5 -4 3 -8 0 -8 -6 0 -6 -4 -9 -9 -6 -5 3 -14 0
-20 -8 -6 -7 -24 -12 -41 -10 -18 2 -30 -1 -30 -8 0 -6 -3 -9 -6 -6 -3 3 -34
-5 -70 -18 -35 -12 -64 -20 -64 -17 0 3 -6 0 -13 -6 -8 -6 -17 -8 -20 -4 -4 3
-7 0 -7 -7 0 -7 -3 -11 -6 -7 -3 3 -25 -3 -49 -13 -24 -10 -46 -16 -49 -13 -3
4 -6 1 -6 -6 0 -7 -4 -9 -10 -6 -5 3 -10 1 -10 -5 0 -7 -7 -9 -15 -6 -9 3 -18
-1 -21 -9 -4 -8 -10 -13 -14 -10 -5 3 -21 -1 -37 -10 -15 -8 -43 -20 -60 -27
-18 -7 -33 -17 -33 -21 0 -5 -4 -5 -10 -2 -5 3 -10 1 -10 -5 0 -6 -4 -9 -9 -6
-5 3 -20 -3 -33 -14 -14 -11 -28 -16 -32 -13 -3 3 -6 1 -6 -5 0 -7 -3 -12 -7
-11 -16 2 -53 -14 -53 -22 0 -5 -7 -9 -15 -9 -8 0 -15 -5 -15 -12 0 -6 -3 -9
-6 -5 -4 3 -26 -7 -49 -23 -23 -16 -45 -26 -49 -23 -3 4 -6 1 -6 -5 0 -7 -7
-12 -15 -12 -7 0 -18 -6 -22 -14 -4 -8 -14 -16 -22 -18 -7 -2 -25 -13 -39 -25
-14 -13 -29 -23 -34 -23 -5 0 -16 -6 -23 -12 -27 -25 -40 -34 -72 -53 -18 -10
-30 -22 -27 -27 3 -4 -2 -8 -10 -8 -9 0 -16 -5 -16 -12 0 -6 -3 -8 -7 -5 -3 4
-12 -2 -20 -13 -8 -11 -18 -20 -24 -20 -5 0 -17 -8 -27 -17 -10 -10 -35 -31
-56 -48 -62 -49 -80 -65 -70 -65 5 0 -6 -10 -23 -21 -18 -12 -33 -25 -33 -30
0 -5 -4 -9 -9 -9 -5 0 -25 -16 -44 -35 -19 -19 -34 -35 -32 -35 2 0 -19 -23
-46 -51 -27 -28 -49 -55 -49 -60 0 -5 -7 -9 -17 -9 -9 0 -13 -3 -10 -7 4 -3
-2 -12 -13 -20 -11 -8 -20 -18 -20 -23 0 -7 -24 -38 -77 -98 -13 -14 -23 -31
-23 -39 0 -8 -3 -12 -7 -10 -5 3 -14 -1 -21 -9 -7 -8 -10 -14 -7 -14 3 0 -9
-20 -27 -45 -59 -80 -73 -100 -73 -107 0 -3 -10 -18 -22 -32 -13 -15 -23 -31
-23 -36 0 -6 -4 -16 -10 -23 -31 -37 -79 -120 -74 -128 3 -5 1 -9 -4 -9 -8 0
-42 -64 -41 -76 0 -4 -3 -10 -8 -13 -13 -10 -33 -49 -33 -66 0 -8 -4 -15 -10
-15 -5 0 -10 -9 -10 -20 0 -11 -4 -20 -10 -20 -5 0 -10 -9 -10 -19 0 -11 -5
-23 -10 -26 -6 -4 -8 -11 -5 -16 4 -5 2 -9 -2 -9 -7 0 -45 -91 -43 -105 0 -3
-7 -19 -15 -35 -8 -16 -15 -31 -14 -32 0 -2 -5 -16 -12 -33 -14 -34 -20 -54
-21 -72 -1 -7 -5 -13 -10 -13 -5 0 -7 -4 -4 -9 3 -5 -1 -25 -9 -44 -8 -19 -11
-37 -8 -41 4 -3 1 -6 -5 -6 -6 0 -11 -8 -12 -17 -2 -53 -6 -73 -12 -73 -4 0
-10 -21 -14 -47 -3 -27 -9 -52 -12 -58 -4 -5 -7 -14 -8 -20 -1 -5 -5 -23 -8
-40 -3 -16 -9 -52 -12 -80 -4 -27 -9 -54 -11 -58 -3 -5 -7 -32 -9 -60 -3 -29
-7 -72 -10 -97 -5 -42 -15 -199 -16 -247 0 -13 -5 -20 -11 -16 -6 4 -7 1 -3
-6 10 -16 11 -115 2 -130 -4 -6 -4 -11 1 -11 4 0 9 -10 9 -22 1 -13 5 -70 9
-128 4 -58 7 -129 8 -157 1 -29 5 -53 9 -53 4 0 6 -16 4 -35 -1 -20 3 -40 9
-45 7 -6 10 -21 7 -35 -2 -14 -1 -33 3 -42 7 -17 13 -52 17 -100 1 -13 5 -23
9 -23 4 0 7 -13 7 -29 -1 -15 3 -34 8 -42 4 -8 9 -24 10 -36 0 -12 7 -30 15
-40 12 -15 12 -16 -1 -8 -13 8 -13 6 -2 -8 8 -9 11 -21 7 -27 -3 -5 -1 -10 6
-10 7 0 9 -10 7 -25 -3 -14 -1 -25 3 -25 5 0 9 -8 9 -18 0 -10 3 -22 8 -26 4
-4 7 -11 8 -14 3 -24 29 -102 34 -102 3 0 6 -10 7 -21 1 -12 10 -31 20 -42 10
-11 12 -17 4 -12 -7 4 -12 4 -9 -1 22 -48 34 -70 42 -75 5 -4 5 -12 2 -18 -4
-6 -3 -11 3 -11 6 0 8 -7 5 -15 -4 -8 -2 -15 4 -15 8 0 28 -42 33 -67 0 -1 22
-44 48 -96 44 -87 52 -117 31 -117 -5 0 -45 -23 -89 -50 -44 -28 -84 -50 -89
-50 -4 0 -17 -8 -28 -18 -10 -10 -21 -19 -24 -19 -23 -6 -48 -19 -63 -32 -10
-8 -25 -16 -33 -17 -9 -1 -24 -10 -33 -18 -10 -9 -23 -16 -29 -16 -7 0 -12 -3
-12 -7 0 -5 -10 -13 -23 -19 -12 -6 -41 -21 -65 -33 -23 -12 -42 -26 -42 -32
0 -6 -4 -7 -10 -4 -5 3 -10 1 -10 -4 0 -6 -3 -10 -8 -9 -13 4 -52 -13 -52 -23
0 -5 -6 -9 -12 -9 -7 0 -24 -9 -37 -19 l-24 -18 21 -30 c12 -17 19 -33 15 -37
-3 -3 1 -6 11 -6 9 0 15 -4 11 -9 -3 -5 0 -13 6 -17 6 -4 16 0 21 9 5 9 28 25
51 37 23 11 65 33 92 50 28 16 65 37 83 46 17 9 32 20 32 25 0 5 3 8 7 7 12
-2 47 14 55 26 4 6 11 11 15 11 16 1 93 49 93 59 0 5 3 6 6 3 8 -8 64 24 64
36 0 4 4 6 9 3 5 -3 14 1 21 9 7 8 16 13 20 10 4 -2 16 5 28 15 12 11 26 20
32 20 6 0 18 7 26 15 16 16 64 21 64 7 0 -8 54 -94 73 -117 4 -5 17 -23 27
-40 46 -71 50 -77 103 -135 9 -11 17 -22 17 -25 0 -3 7 -13 15 -22 8 -10 27
-35 43 -55 16 -21 32 -35 36 -33 3 3 4 2 1 -2 -3 -3 0 -12 6 -19 8 -10 3 -23
-21 -54 -17 -22 -29 -40 -26 -40 4 0 -7 -14 -24 -31 -16 -17 -27 -35 -24 -40
3 -5 -1 -9 -8 -9 -8 0 -21 -12 -30 -27 -9 -16 -28 -41 -42 -58 -14 -16 -29
-38 -32 -48 -3 -9 -10 -15 -15 -12 -5 4 -9 1 -9 -5 0 -12 -60 -93 -72 -98 -5
-2 -8 -8 -8 -13 0 -11 -11 -25 -53 -69 -16 -17 -25 -30 -21 -30 4 0 -5 -11
-20 -25 -14 -13 -26 -28 -26 -33 0 -5 -11 -19 -25 -32 -13 -12 -22 -27 -19
-31 3 -5 0 -9 -5 -9 -6 0 -11 -8 -11 -17 0 -9 -3 -13 -7 -10 -3 4 -15 -8 -26
-26 -11 -17 -28 -41 -38 -52 -55 -61 -109 -137 -104 -145 3 -6 -1 -10 -9 -10
-9 0 -16 -7 -16 -16 0 -8 -5 -12 -10 -9 -6 3 -10 -1 -10 -9 0 -8 -10 -22 -22
-30 -12 -9 -18 -16 -13 -16 5 0 -4 -13 -20 -30 -23 -24 -36 -29 -68 -28 -21 1
-42 -3 -45 -9 -4 -6 -7 -152 -7 -325 l0 -313 993 0 c547 0 996 3 999 8 5 8 5
39 1 150 -2 37 -1 67 2 67 3 0 5 25 5 55 0 30 -2 55 -5 55 -5 0 -5 21 0 115 1
22 1 43 0 48 -11 45 3 112 25 121 8 3 15 11 15 18 0 7 16 31 35 52 19 22 31
44 28 49 -3 6 -2 8 3 5 5 -3 15 0 22 8 7 8 11 14 8 14 -3 0 5 10 17 23 14 14
28 21 37 17 8 -4 21 -5 28 -3 6 3 12 0 12 -7 0 -6 6 -10 13 -9 6 1 25 -3 40
-9 16 -7 35 -12 43 -12 8 0 14 -4 14 -8 0 -4 8 -8 18 -9 27 -2 51 -9 58 -16 4
-4 15 -7 25 -7 10 0 30 -5 46 -12 26 -10 39 -13 88 -21 11 -2 26 -6 33 -11 6
-4 16 -5 21 -1 5 3 12 1 15 -4 3 -4 27 -12 53 -15 27 -4 57 -9 68 -12 11 -2
36 -6 55 -8 19 -2 42 -6 50 -9 8 -3 41 -8 73 -11 31 -3 61 -8 66 -11 5 -3 12
-1 15 4 4 6 21 5 44 -1 38 -12 552 -18 552 -7 0 3 21 6 48 6 26 1 79 6 117 12
39 6 86 13 105 16 72 10 85 12 100 18 8 3 33 8 55 12 40 6 66 12 75 16 3 1 10
3 15 4 6 2 12 4 15 5 7 2 29 7 67 14 18 3 45 11 60 18 15 6 34 10 41 9 6 -1
12 2 12 7 0 5 10 9 23 9 12 0 40 7 62 17 22 9 48 18 58 19 9 1 17 4 17 8 0 12
48 3 63 -12 7 -8 12 -21 9 -29 -3 -8 -1 -12 2 -8 12 10 38 -20 100 -113 24
-36 24 -38 25 -290 0 -140 0 -274 0 -299 l1 -45 1003 0 1002 0 0 323 c0 281
-2 322 -15 323 -8 1 -28 1 -45 1 -35 0 -56 17 -98 78 -31 46 -39 56 -79 101
-13 15 -24 31 -25 37 -2 6 -14 22 -28 36 -14 14 -25 30 -25 36 0 5 -7 10 -16
10 -8 0 -13 4 -10 9 3 4 -2 18 -12 29 -9 11 -24 30 -32 42 -8 12 -22 30 -30
40 -8 9 -26 32 -40 50 -14 18 -31 39 -37 46 -7 7 -13 16 -13 21 0 4 -18 27
-39 50 -22 23 -37 44 -34 47 4 3 0 6 -7 6 -7 0 -11 3 -7 6 3 3 -8 19 -24 35
-16 16 -26 29 -22 29 4 0 -2 7 -13 16 -10 8 -12 12 -4 8 9 -4 6 2 -5 13 -31
31 -65 73 -65 79 0 4 -14 23 -31 43 -40 47 -60 73 -84 106 -11 16 -26 34 -32
41 -20 20 -16 36 20 75 58 65 87 104 87 118 0 8 3 11 7 8 3 -4 28 23 55 61 26
37 52 72 58 79 5 7 10 16 10 21 0 5 9 17 20 27 11 10 17 21 15 25 -3 4 2 11
11 14 9 4 14 9 11 13 -4 3 3 14 14 24 11 9 20 19 19 21 -1 2 1 10 5 19 6 16
35 22 35 7 0 -5 4 -6 10 -3 6 3 10 2 10 -4 0 -6 11 -13 25 -17 13 -3 29 -12
36 -20 6 -8 15 -11 20 -8 5 3 9 0 9 -5 0 -6 7 -11 15 -11 8 0 15 -5 15 -12 0
-6 3 -9 6 -5 3 3 11 1 18 -4 24 -21 129 -79 142 -79 8 0 14 -4 14 -8 0 -11 56
-43 63 -36 3 3 10 -4 16 -15 7 -12 17 -18 26 -15 8 4 15 1 15 -7 0 -7 3 -10 6
-6 4 3 12 1 20 -6 25 -23 40 -32 54 -35 8 -2 20 -10 26 -18 6 -7 19 -14 28
-14 9 0 16 -4 16 -10 0 -5 6 -10 14 -10 7 0 25 -9 39 -20 31 -25 37 -24 57 4
21 30 49 87 40 81 -4 -3 -13 2 -20 10 -7 8 -19 15 -26 15 -8 0 -14 5 -14 11 0
5 -5 7 -10 4 -6 -3 -10 -1 -10 4 0 6 -5 11 -11 11 -6 0 -31 14 -56 30 -24 17
-47 30 -51 30 -4 0 -27 14 -51 30 -24 17 -52 30 -63 30 -10 0 -18 5 -18 11 0
5 -15 17 -32 25 -41 20 -82 43 -133 75 -22 15 -50 29 -62 33 -13 4 -23 11 -23
16 0 4 -17 15 -37 24 -45 18 -94 55 -74 56 7 0 11 6 7 15 -3 8 -2 15 2 15 7 0
27 44 29 64 1 5 5 12 10 15 16 11 44 81 37 93 -4 6 -3 8 3 5 9 -6 80 149 76
165 -2 4 1 8 6 8 5 0 13 15 16 32 4 18 12 44 18 58 5 14 11 30 13 35 1 6 9 29
17 52 9 22 13 44 10 47 -4 3 -2 6 3 6 5 0 10 9 11 20 1 11 8 34 16 50 10 18
11 30 5 32 -7 3 -5 10 3 18 8 8 15 26 16 40 1 14 4 36 8 50 4 14 8 34 10 45 2
11 4 20 5 20 1 0 4 16 6 35 3 19 8 42 11 50 6 15 8 27 17 105 2 22 5 40 6 40
2 0 3 11 5 25 1 14 5 59 10 100 4 41 8 94 8 118 -1 23 2 42 6 42 11 0 0 414
-13 498 -3 20 -7 54 -8 75 -1 21 -5 40 -9 42 -3 3 -5 18 -3 35 2 16 -1 30 -6
30 -5 0 -8 16 -6 36 1 19 -1 37 -6 40 -4 3 -8 20 -8 38 0 18 -3 36 -7 40 -4 4
-8 19 -9 34 -1 15 -2 27 -3 27 -2 0 -4 7 -6 15 -10 39 -18 76 -19 92 -1 9 -7
23 -14 31 -7 7 -10 16 -7 19 3 3 -1 24 -9 46 -9 23 -12 42 -9 42 4 0 2 5 -5
12 -7 7 -12 20 -12 30 0 10 -4 18 -9 18 -6 0 -8 9 -6 20 2 11 -1 20 -6 20 -5
0 -9 6 -8 13 1 6 -4 26 -11 42 -7 17 -14 33 -15 38 -2 4 -4 9 -5 12 -1 3 -4
10 -5 15 -1 6 -4 13 -5 18 -1 4 -2 10 -1 15 0 4 -4 7 -9 7 -6 0 -10 7 -10 15
0 9 -11 38 -25 65 -14 27 -25 56 -25 65 0 8 -3 15 -8 15 -4 0 -13 15 -20 33
-25 60 -35 76 -43 71 -5 -3 -6 3 -2 12 3 10 0 22 -8 28 -15 12 -44 66 -41 79
1 4 -3 7 -8 7 -6 0 -10 7 -10 15 0 8 -4 15 -8 15 -4 0 -19 22 -33 49 -13 27
-27 47 -31 44 -5 -2 -8 3 -8 11 0 18 -60 106 -72 106 -4 0 -8 7 -8 15 0 8 -7
23 -16 33 -8 9 -50 61 -91 115 -42 53 -80 97 -85 97 -4 0 -8 5 -8 10 0 6 -12
23 -28 38 -15 15 -40 44 -56 65 -18 23 -35 36 -43 33 -8 -3 -11 -2 -8 4 3 5
-21 37 -55 70 -33 34 -60 59 -60 56 0 -4 -20 13 -44 36 -65 64 -125 115 -130
111 -2 -2 -15 6 -28 19 -13 13 -38 34 -56 48 -19 14 -39 30 -46 35 -6 6 -19
15 -28 20 -9 6 -36 24 -59 40 -24 17 -56 36 -71 44 -16 8 -28 18 -28 23 0 5
-4 6 -10 3 -5 -3 -10 -2 -10 4 0 5 -9 13 -20 16 -11 3 -26 12 -32 18 -7 7 -37
23 -65 37 -29 14 -53 28 -53 33 0 4 -7 7 -16 7 -9 0 -30 10 -47 22 -18 13 -33
22 -35 20 -3 -3 -95 40 -102 47 -3 3 -13 7 -22 9 -9 1 -29 9 -44 17 -15 8 -31
12 -36 9 -4 -3 -8 -1 -8 5 0 5 -17 15 -37 22 -21 6 -42 14 -48 18 -5 3 -19 7
-29 8 -11 2 -25 8 -32 14 -7 6 -17 8 -23 5 -5 -4 -16 0 -24 8 -8 8 -17 13 -19
10 -3 -2 -18 1 -34 7 -16 7 -35 14 -41 16 -32 8 -40 10 -76 18 -20 4 -40 11
-43 16 -3 5 -9 7 -13 4 -5 -2 -23 0 -42 6 -37 11 -48 14 -156 31 -40 6 -73 14
-73 18 0 3 -17 5 -37 5 -21 -1 -42 2 -48 6 -5 4 -27 6 -48 5 -21 -1 -40 2 -43
5 -2 4 -36 7 -76 8 -39 0 -74 4 -77 8 -8 11 -82 12 -75 2 3 -5 -5 -5 -18 0
-13 4 -28 6 -35 4 -10 -3 -12 77 -12 354 0 197 0 373 0 391 l-1 32 -60 0 c-50
0 -60 -3 -61 -17z"/>
<path d="M4140 7795 c-19 -14 -30 -25 -25 -25 6 0 -8 -10 -30 -21 -39 -21 -55
-36 -55 -51 0 -5 4 -8 9 -8 12 0 137 -122 134 -130 -1 -4 4 -7 11 -7 9 0 12
16 11 54 -2 61 1 63 95 49 14 -3 48 -7 75 -10 28 -3 62 -9 75 -14 14 -4 35 -7
48 -6 12 0 22 -3 22 -9 0 -6 2 -8 5 -5 3 3 27 1 53 -4 87 -17 97 -19 120 -20
12 -1 22 -5 22 -8 0 -4 6 -7 13 -8 30 -2 83 -15 98 -23 9 -4 19 -5 23 -2 3 3
6 0 6 -7 0 -7 3 -11 6 -7 3 3 29 -2 57 -10 29 -8 57 -16 62 -18 6 -1 18 -5 27
-9 9 -4 22 -8 30 -10 7 -1 18 -5 24 -8 6 -4 22 -9 36 -12 15 -2 37 -10 50 -17
12 -7 24 -12 25 -11 2 1 10 -1 18 -3 8 -3 22 -7 30 -10 8 -2 17 -4 20 -5 3 0
18 -6 34 -14 16 -9 31 -12 35 -9 3 4 6 1 6 -5 0 -7 3 -11 8 -9 10 3 156 -56
160 -65 2 -5 9 -8 15 -8 15 0 96 -39 131 -64 19 -12 26 -15 21 -5 -6 10 -2 9
11 -3 10 -9 30 -21 44 -27 14 -6 39 -20 55 -31 17 -11 38 -23 48 -26 9 -4 17
-10 17 -14 0 -4 8 -10 18 -13 26 -9 76 -40 85 -55 5 -7 12 -10 18 -7 5 4 9 1
9 -4 0 -6 7 -11 15 -11 8 0 15 -4 15 -10 0 -5 7 -10 15 -10 8 0 15 -4 15 -10
0 -5 7 -10 15 -10 7 0 19 -8 24 -17 6 -10 11 -15 11 -10 0 4 14 -6 31 -23 18
-16 38 -30 45 -30 7 0 20 -10 28 -22 9 -12 16 -18 16 -14 0 5 17 -7 37 -27 20
-21 43 -37 51 -37 9 0 13 -2 10 -5 -6 -6 81 -95 93 -95 5 0 9 -4 9 -9 0 -6 23
-32 51 -60 50 -48 53 -49 75 -34 13 8 24 23 24 32 -1 15 -43 71 -54 71 -3 0
-37 30 -75 68 -91 86 -98 92 -105 85 -3 -4 -6 1 -6 10 0 9 -5 17 -10 17 -10 0
-61 42 -89 73 -8 9 -20 17 -25 17 -5 0 -17 10 -27 22 -11 11 -19 17 -19 12 0
-5 -4 -4 -8 1 -7 10 -159 115 -167 115 -2 0 -30 18 -63 39 -32 22 -87 54 -123
73 -35 18 -67 37 -71 43 -4 5 -8 7 -8 3 0 -3 -37 12 -82 35 -46 23 -86 40 -90
39 -5 -1 -8 3 -8 8 0 5 -3 9 -7 8 -8 -1 -24 4 -70 23 -55 22 -70 28 -103 39
-19 7 -48 18 -65 25 -16 8 -43 17 -60 21 -16 4 -34 10 -40 14 -14 10 -145 49
-175 52 -14 2 -28 6 -31 11 -3 4 -20 9 -37 10 -18 1 -32 5 -32 8 0 7 -57 23
-77 22 -7 0 -13 3 -13 9 0 5 -4 6 -10 3 -5 -3 -10 -2 -10 3 0 5 -6 9 -12 9 -7
0 -29 4 -48 8 -19 4 -41 8 -47 8 -7 0 -13 3 -13 6 0 3 -17 6 -38 6 -20 0 -39
3 -42 7 -3 4 -27 8 -53 10 -26 2 -47 5 -47 8 0 3 -15 7 -33 8 -18 1 -44 5 -57
8 -14 3 -53 6 -87 7 -35 1 -63 5 -63 10 0 4 -6 6 -12 5 -8 -2 -17 14 -22 40
-6 23 -13 42 -16 42 -3 0 -21 -11 -40 -25z"/>
<path d="M6890 6470 l-21 -19 23 -14 c13 -8 31 -19 40 -23 9 -5 14 -14 10 -19
-13 -18 -67 -52 -94 -59 -16 -3 -28 -11 -28 -17 0 -6 -4 -7 -10 -4 -5 3 -10 1
-10 -4 0 -6 -6 -11 -14 -11 -17 0 -78 -31 -88 -45 -4 -5 -8 -7 -8 -2 0 4 -8
-1 -18 -10 -13 -13 -16 -23 -10 -35 12 -25 32 -22 96 14 81 44 196 102 213
106 8 2 16 7 19 10 3 4 10 8 17 9 17 4 80 43 68 43 -5 0 -5 4 2 8 19 12 0 31
-35 34 -18 1 -32 6 -32 11 0 4 -4 6 -8 3 -5 -3 -27 6 -50 19 -40 23 -41 23
-62 5z"/>
<path d="M7150 6122 c-32 -11 -55 -52 -29 -52 5 0 7 -5 3 -11 -4 -8 -1 -8 13
-1 11 6 28 9 39 7 10 -2 22 -4 27 -4 16 -2 51 -53 53 -76 2 -39 -43 -72 -97
-70 -24 1 -51 4 -59 8 -8 3 -33 11 -55 17 -22 6 -47 14 -55 17 -8 4 -23 7 -32
8 -10 2 -19 3 -20 5 -4 2 -38 9 -77 15 -36 5 -61 -11 -53 -35 3 -8 8 -17 11
-20 3 -3 17 -29 30 -57 13 -29 33 -62 43 -73 10 -11 16 -20 13 -20 -4 0 1 -7
9 -16 9 -8 14 -20 11 -25 -4 -5 -1 -9 5 -9 6 0 8 -5 5 -10 -4 -6 4 -6 19 1 17
8 23 18 21 31 -6 28 -45 107 -56 114 -11 7 -8 46 4 55 10 7 57 -12 57 -24 0
-5 4 -6 9 -2 5 3 12 1 16 -5 4 -6 10 -8 15 -5 5 3 11 1 15 -5 3 -5 17 -10 31
-10 13 0 24 -4 24 -9 0 -6 9 -8 20 -6 11 2 20 1 20 -3 0 -9 67 -7 98 3 12 4
22 11 22 16 0 5 7 9 16 9 8 0 12 5 9 10 -3 6 -2 10 3 10 12 0 34 59 26 71 -3
5 1 9 8 9 10 0 10 2 0 9 -8 4 -13 12 -13 17 3 38 -51 100 -93 108 -14 3 -29 7
-33 9 -5 2 -15 2 -23 -1z"/>
<path d="M7325 5700 c-3 -5 -17 -10 -30 -10 -13 0 -33 -10 -45 -22 -11 -12
-20 -16 -20 -9 0 10 -3 10 -14 -1 -20 -19 -53 -41 -60 -40 -7 2 -58 -45 -54
-50 2 -2 -7 -14 -19 -27 -12 -13 -19 -29 -16 -34 4 -6 7 -24 7 -41 1 -42 34
-93 68 -107 43 -18 132 -14 160 8 7 5 28 15 46 23 17 7 32 16 32 21 0 5 7 6
15 3 8 -4 17 1 21 10 3 9 10 13 15 10 5 -3 12 2 15 10 3 9 11 16 18 16 19 0
46 49 49 93 1 9 4 17 8 17 6 0 5 23 -1 40 -1 3 -2 8 -1 13 0 4 -4 7 -11 7 -6
0 -8 3 -5 6 7 8 -42 54 -58 55 -5 0 -17 2 -25 4 -50 12 -60 13 -60 3 0 -7 -5
-6 -14 1 -10 8 -16 9 -21 1z m123 -73 c24 -25 25 -48 4 -100 -7 -16 -16 -25
-22 -22 -5 3 -10 2 -10 -4 0 -5 -9 -13 -20 -16 -12 -4 -17 -11 -14 -18 4 -7 4
-9 -1 -5 -4 4 -26 -3 -49 -14 -46 -24 -61 -29 -93 -32 -13 0 -23 -4 -23 -7 0
-4 -14 -5 -31 -4 -29 3 -57 27 -60 53 -1 6 -2 18 -3 25 -4 25 41 83 64 81 3 0
16 10 30 23 14 13 30 23 37 23 6 0 19 7 27 16 9 8 16 13 16 10 0 -3 10 -2 21
3 12 4 40 8 63 10 33 1 47 -3 64 -22z"/>
<path d="M7590 5310 c-8 -5 -18 -6 -22 -4 -5 3 -8 2 -7 -3 1 -4 0 -10 -1 -13
-1 -3 -4 -25 -5 -50 -4 -48 17 -85 42 -76 7 3 13 1 13 -4 0 -5 10 -6 23 -4 12
3 28 6 35 6 6 1 12 5 12 9 0 4 9 11 20 14 11 4 18 10 15 15 -3 5 -1 11 5 15
17 10 11 39 -14 68 -25 29 -88 44 -116 27z m91 -84 c-6 -7 -8 -16 -4 -19 3 -4
0 -8 -8 -8 -8 -1 -24 -3 -37 -4 -18 -2 -20 0 -11 12 9 11 9 12 -4 8 -8 -4 -18
-1 -23 6 -5 8 -3 10 7 4 12 -7 12 -6 1 7 -10 13 -10 17 3 22 9 3 13 11 9 17
-4 7 -3 9 4 5 6 -3 14 -2 17 4 4 7 16 1 31 -15 18 -20 22 -30 15 -39z"/>
<path d="M7560 4817 c-24 -12 -43 -67 -23 -67 4 0 8 -10 9 -22 1 -25 7 -54 17
-78 3 -8 8 -26 10 -40 3 -14 8 -36 11 -50 9 -36 17 -90 20 -128 2 -17 6 -35 9
-39 12 -11 7 -24 -5 -17 -10 6 -10 5 0 -8 6 -8 12 -26 11 -39 -1 -55 14 -195
23 -206 5 -7 5 -14 -2 -18 -6 -3 -7 -12 -3 -18 12 -19 10 -277 -2 -277 -5 0
-3 -5 5 -10 8 -5 10 -10 5 -10 -6 0 -12 -31 -13 -72 -1 -40 -5 -91 -8 -113 -3
-22 -8 -58 -10 -80 -10 -94 -12 -110 -15 -115 -1 -3 -3 -9 -4 -15 -1 -5 -8
-44 -15 -85 -8 -41 -14 -85 -14 -97 0 -13 -3 -23 -6 -23 -4 0 -7 -6 -7 -12 0
-7 -4 -26 -7 -43 -4 -16 -9 -45 -11 -64 -3 -19 -9 -39 -14 -45 -5 -6 -7 -19
-6 -28 2 -10 0 -18 -4 -18 -4 0 -8 -10 -9 -22 -4 -58 -8 -74 -19 -80 -6 -5 -9
-17 -6 -28 3 -12 0 -20 -7 -20 -10 0 -10 -3 0 -15 7 -8 8 -15 3 -15 -5 0 -17
-27 -26 -60 -10 -33 -22 -62 -27 -65 -5 -3 -7 -12 -4 -20 3 -8 -1 -21 -9 -30
-8 -8 -14 -26 -13 -40 2 -13 -1 -22 -6 -19 -4 3 -11 -8 -14 -25 -4 -17 -11
-31 -16 -31 -5 0 -7 -4 -4 -8 3 -5 -2 -21 -9 -36 -8 -16 -12 -32 -9 -37 3 -5
1 -9 -5 -9 -9 0 -27 -40 -22 -49 2 -2 -1 -7 -6 -10 -5 -3 -14 -18 -20 -33 -14
-30 -43 -29 -79 4 -21 19 -21 19 -27 -3 -3 -12 -3 -27 1 -33 3 -6 8 -20 10
-31 1 -11 8 -38 14 -60 6 -22 12 -43 12 -47 1 -4 6 -11 11 -16 12 -11 78 5 71
16 -3 4 9 9 26 10 17 1 38 7 48 12 9 5 21 6 25 2 5 -4 5 1 2 11 -4 10 -7 23
-7 28 0 6 -4 7 -10 4 -5 -3 -10 -1 -10 5 0 6 -4 9 -9 6 -5 -3 -11 3 -14 14 -3
11 -1 23 4 26 5 3 7 9 4 14 -3 5 -1 11 5 15 6 4 8 11 5 16 -4 5 -1 9 4 9 6 0
10 3 9 8 -1 4 11 33 25 66 15 32 27 64 27 70 0 7 4 16 9 22 6 5 12 21 15 36 2
14 9 36 16 47 6 12 8 26 5 31 -3 6 -2 10 3 10 9 0 26 55 23 73 0 4 3 7 9 7 5
0 7 7 4 15 -4 8 -2 15 4 15 5 0 9 6 9 13 -1 23 16 77 24 77 5 0 6 7 3 15 -3 8
-2 20 3 27 4 7 8 24 9 38 0 14 4 31 8 39 5 7 15 40 23 74 8 34 17 71 19 82 3
11 7 34 9 52 2 18 9 42 15 54 10 17 9 20 -1 14 -8 -6 -10 -4 -5 4 5 7 10 27
13 44 3 18 8 37 12 42 4 6 8 25 10 44 1 19 7 41 13 48 8 9 7 13 -1 13 -7 0
-10 4 -6 9 3 6 8 29 11 53 9 69 12 87 18 97 4 5 2 13 -4 16 -8 5 -8 11 0 20 7
8 9 18 6 23 -2 4 -1 25 4 45 5 23 4 37 -2 37 -5 0 -6 6 -1 13 4 6 9 41 11 77
2 36 5 100 8 143 3 42 2 77 -3 77 -4 0 -9 49 -10 110 -1 60 -7 118 -13 130 -6
12 -7 20 -1 20 6 0 6 12 0 32 -11 41 -11 41 4 32 9 -6 8 -4 -1 8 -7 9 -14 30
-14 47 -1 17 -4 31 -7 31 -3 0 -7 12 -8 28 -5 81 -7 91 -16 85 -6 -3 -7 -1 -3
5 4 6 1 31 -5 54 -15 54 -18 66 -21 101 -1 16 -6 31 -10 33 -4 3 -5 11 -1 19
3 9 -1 15 -8 15 -11 0 -11 3 1 10 8 5 10 10 4 10 -6 0 -15 9 -20 20 -8 17 -12
18 -34 7z"/>
</g>
</svg>
